<svg width="81" height="23" viewBox="0 0 81 23" fill="none" xmlns="http://www.w3.org/2000/svg">
<path d="M16.44 4.16C16.44 4.26667 16.3973 4.36267 16.312 4.448C16.248 4.512 16.1627 4.544 16.056 4.544H6.03999C5.93333 4.544 5.87999 4.59733 5.87999 4.704V8.64C5.87999 8.74667 5.93333 8.8 6.03999 8.8H12.472C12.5787 8.8 12.664 8.84267 12.728 8.928C12.8133 8.992 12.856 9.07734 12.856 9.184V12.928C12.856 13.0347 12.8133 13.1307 12.728 13.216C12.664 13.28 12.5787 13.312 12.472 13.312H6.03999C5.93333 13.312 5.87999 13.3653 5.87999 13.472V22.016C5.87999 22.1227 5.83733 22.2187 5.75199 22.304C5.68799 22.368 5.60266 22.4 5.49599 22.4H0.951993C0.845327 22.4 0.749326 22.368 0.663993 22.304C0.599993 22.2187 0.567993 22.1227 0.567993 22.016V0.384002C0.567993 0.277335 0.599993 0.192002 0.663993 0.128001C0.749326 0.0426677 0.845327 9.53674e-07 0.951993 9.53674e-07H16.056C16.1627 9.53674e-07 16.248 0.0426677 16.312 0.128001C16.3973 0.192002 16.44 0.277335 16.44 0.384002V4.16Z" fill="#00D1B2"/>
<path d="M29.3565 22.656C27.6712 22.656 26.1778 22.336 24.8765 21.696C23.5965 21.0347 22.5938 20.1067 21.8685 18.912C21.1645 17.7173 20.8125 16.3413 20.8125 14.784V0.384002C20.8125 0.277335 20.8445 0.192002 20.9085 0.128001C20.9938 0.0426677 21.0898 9.53674e-07 21.1965 9.53674e-07H25.7405C25.8472 9.53674e-07 25.9325 0.0426677 25.9965 0.128001C26.0818 0.192002 26.1245 0.277335 26.1245 0.384002V14.784C26.1245 15.7867 26.4125 16.5973 26.9885 17.216C27.5858 17.8133 28.3752 18.112 29.3565 18.112C30.3165 18.112 31.0845 17.8133 31.6605 17.216C32.2578 16.5973 32.5565 15.7867 32.5565 14.784V0.384002C32.5565 0.277335 32.5885 0.192002 32.6525 0.128001C32.7378 0.0426677 32.8338 9.53674e-07 32.9405 9.53674e-07H37.4845C37.5912 9.53674e-07 37.6765 0.0426677 37.7405 0.128001C37.8258 0.192002 37.8685 0.277335 37.8685 0.384002V14.784C37.8685 16.3413 37.5165 17.7173 36.8125 18.912C36.1085 20.1067 35.1058 21.0347 33.8045 21.696C32.5245 22.336 31.0418 22.656 29.3565 22.656Z" fill="#00D1B2"/>
<path d="M59.342 4.16C59.342 4.26667 59.2993 4.36267 59.214 4.448C59.15 4.512 59.0647 4.544 58.958 4.544H48.91C48.8033 4.544 48.75 4.59733 48.75 4.704V8.64C48.75 8.74667 48.8033 8.8 48.91 8.8H55.342C55.4487 8.8 55.534 8.84267 55.598 8.928C55.6833 8.992 55.726 9.07734 55.726 9.184V12.928C55.726 13.0347 55.6833 13.1307 55.598 13.216C55.534 13.28 55.4487 13.312 55.342 13.312H48.91C48.8033 13.312 48.75 13.3653 48.75 13.472V17.696C48.75 17.8027 48.8033 17.856 48.91 17.856H58.958C59.0647 17.856 59.15 17.8987 59.214 17.984C59.2993 18.048 59.342 18.1333 59.342 18.24V22.016C59.342 22.1227 59.2993 22.2187 59.214 22.304C59.15 22.368 59.0647 22.4 58.958 22.4H43.822C43.7153 22.4 43.6193 22.368 43.534 22.304C43.47 22.2187 43.438 22.1227 43.438 22.016V0.384002C43.438 0.277335 43.47 0.192002 43.534 0.128001C43.6193 0.0426677 43.7153 9.53674e-07 43.822 9.53674e-07H58.958C59.0647 9.53674e-07 59.15 0.0426677 59.214 0.128001C59.2993 0.192002 59.342 0.277335 59.342 0.384002V4.16Z" fill="#00D1B2"/>
<path d="M64.8507 22.4C64.7441 22.4 64.6481 22.368 64.5627 22.304C64.4987 22.2187 64.4667 22.1227 64.4667 22.016V0.384002C64.4667 0.277335 64.4987 0.192002 64.5627 0.128001C64.6481 0.0426677 64.7441 9.53674e-07 64.8507 9.53674e-07H69.3947C69.5014 9.53674e-07 69.5867 0.0426677 69.6507 0.128001C69.7361 0.192002 69.7787 0.277335 69.7787 0.384002V17.696C69.7787 17.8027 69.8321 17.856 69.9387 17.856H80.1467C80.2534 17.856 80.3387 17.8987 80.4027 17.984C80.4881 18.048 80.5307 18.1333 80.5307 18.24V22.016C80.5307 22.1227 80.4881 22.2187 80.4027 22.304C80.3387 22.368 80.2534 22.4 80.1467 22.4H64.8507Z" fill="#00D1B2"/>
</svg>
